<mxfile host="Electron" modified="2024-05-31T12:03:31.055Z" agent="Mozilla/5.0 (Windows NT 10.0; Win64; x64) AppleWebKit/537.36 (KHTML, like Gecko) draw.io/24.4.0 Chrome/120.0.6099.109 Electron/28.1.0 Safari/537.36" etag="5slqha5gU0FDIVzHSkro" version="24.4.0" type="device">
  <diagram name="Page-1" id="y0fXZsP12we2xpJl7bDv">
    <mxGraphModel dx="867" dy="570" grid="1" gridSize="10" guides="1" tooltips="1" connect="1" arrows="1" fold="1" page="1" pageScale="1" pageWidth="850" pageHeight="1100" math="0" shadow="0">
      <root>
        <mxCell id="0" />
        <mxCell id="1" parent="0" />
        <mxCell id="illKjyLx86xLcSt3p9vl-7" value="" style="rounded=0;whiteSpace=wrap;html=1;" vertex="1" parent="1">
          <mxGeometry x="200" y="60" width="500" height="360" as="geometry" />
        </mxCell>
        <mxCell id="illKjyLx86xLcSt3p9vl-1" value="User" style="shape=umlActor;verticalLabelPosition=bottom;verticalAlign=top;html=1;outlineConnect=0;" vertex="1" parent="1">
          <mxGeometry x="120" y="120" width="30" height="60" as="geometry" />
        </mxCell>
        <mxCell id="illKjyLx86xLcSt3p9vl-15" style="edgeStyle=orthogonalEdgeStyle;rounded=0;orthogonalLoop=1;jettySize=auto;html=1;exitX=0;exitY=0.5;exitDx=0;exitDy=0;dashed=1;" edge="1" parent="1" source="illKjyLx86xLcSt3p9vl-4" target="illKjyLx86xLcSt3p9vl-13">
          <mxGeometry relative="1" as="geometry" />
        </mxCell>
        <mxCell id="illKjyLx86xLcSt3p9vl-18" value="&amp;lt;&amp;lt;include&amp;gt;&amp;gt;" style="edgeLabel;html=1;align=center;verticalAlign=middle;resizable=0;points=[];" vertex="1" connectable="0" parent="illKjyLx86xLcSt3p9vl-15">
          <mxGeometry x="-0.7437" y="1" relative="1" as="geometry">
            <mxPoint x="-31" y="-1" as="offset" />
          </mxGeometry>
        </mxCell>
        <mxCell id="illKjyLx86xLcSt3p9vl-4" value="Create a new&lt;div&gt;sticky note&lt;/div&gt;" style="ellipse;whiteSpace=wrap;html=1;" vertex="1" parent="1">
          <mxGeometry x="530" y="110" width="120" height="80" as="geometry" />
        </mxCell>
        <mxCell id="illKjyLx86xLcSt3p9vl-16" style="edgeStyle=orthogonalEdgeStyle;rounded=0;orthogonalLoop=1;jettySize=auto;html=1;exitX=0;exitY=0.5;exitDx=0;exitDy=0;dashed=1;" edge="1" parent="1" source="illKjyLx86xLcSt3p9vl-5" target="illKjyLx86xLcSt3p9vl-13">
          <mxGeometry relative="1" as="geometry" />
        </mxCell>
        <mxCell id="illKjyLx86xLcSt3p9vl-20" value="&amp;lt;&amp;lt;include&amp;gt;&amp;gt;" style="edgeLabel;html=1;align=center;verticalAlign=middle;resizable=0;points=[];" vertex="1" connectable="0" parent="illKjyLx86xLcSt3p9vl-16">
          <mxGeometry x="-0.1741" y="-2" relative="1" as="geometry">
            <mxPoint x="-6" y="-8" as="offset" />
          </mxGeometry>
        </mxCell>
        <mxCell id="illKjyLx86xLcSt3p9vl-5" value="Archive a&lt;div&gt;sticky note&amp;nbsp;&lt;span style=&quot;background-color: initial;&quot;&gt;/&lt;/span&gt;&lt;/div&gt;&lt;div&gt;&lt;span style=&quot;background-color: initial;&quot;&gt;mark as &quot;done&quot;&lt;/span&gt;&lt;/div&gt;" style="ellipse;whiteSpace=wrap;html=1;perimeterSpacing=0;" vertex="1" parent="1">
          <mxGeometry x="560" y="210" width="120" height="80" as="geometry" />
        </mxCell>
        <mxCell id="illKjyLx86xLcSt3p9vl-17" style="edgeStyle=orthogonalEdgeStyle;rounded=0;orthogonalLoop=1;jettySize=auto;html=1;exitX=0;exitY=0.5;exitDx=0;exitDy=0;entryX=0.5;entryY=1;entryDx=0;entryDy=0;dashed=1;" edge="1" parent="1" source="illKjyLx86xLcSt3p9vl-6" target="illKjyLx86xLcSt3p9vl-13">
          <mxGeometry relative="1" as="geometry" />
        </mxCell>
        <mxCell id="illKjyLx86xLcSt3p9vl-19" value="&amp;lt;&amp;lt;include&amp;gt;&amp;gt;" style="edgeLabel;html=1;align=center;verticalAlign=middle;resizable=0;points=[];" vertex="1" connectable="0" parent="illKjyLx86xLcSt3p9vl-17">
          <mxGeometry x="-0.3986" y="-4" relative="1" as="geometry">
            <mxPoint as="offset" />
          </mxGeometry>
        </mxCell>
        <mxCell id="illKjyLx86xLcSt3p9vl-6" value="Delete a sticky note" style="ellipse;whiteSpace=wrap;html=1;" vertex="1" parent="1">
          <mxGeometry x="530" y="320" width="120" height="80" as="geometry" />
        </mxCell>
        <mxCell id="illKjyLx86xLcSt3p9vl-8" value="Sticky Notes" style="text;html=1;align=center;verticalAlign=middle;whiteSpace=wrap;rounded=0;fontStyle=1;fontSize=18;" vertex="1" parent="1">
          <mxGeometry x="200" y="70" width="500" height="30" as="geometry" />
        </mxCell>
        <mxCell id="illKjyLx86xLcSt3p9vl-11" value="" style="edgeStyle=orthogonalEdgeStyle;rounded=0;orthogonalLoop=1;jettySize=auto;html=1;endArrow=none;endFill=0;" edge="1" parent="1" source="illKjyLx86xLcSt3p9vl-9" target="illKjyLx86xLcSt3p9vl-1">
          <mxGeometry relative="1" as="geometry" />
        </mxCell>
        <mxCell id="illKjyLx86xLcSt3p9vl-9" value="Register" style="ellipse;whiteSpace=wrap;html=1;" vertex="1" parent="1">
          <mxGeometry x="220" y="110" width="120" height="80" as="geometry" />
        </mxCell>
        <mxCell id="illKjyLx86xLcSt3p9vl-12" style="edgeStyle=orthogonalEdgeStyle;rounded=0;orthogonalLoop=1;jettySize=auto;html=1;exitX=0;exitY=0.5;exitDx=0;exitDy=0;endArrow=none;endFill=0;" edge="1" parent="1" source="illKjyLx86xLcSt3p9vl-10">
          <mxGeometry relative="1" as="geometry">
            <mxPoint x="180" y="150" as="targetPoint" />
          </mxGeometry>
        </mxCell>
        <mxCell id="illKjyLx86xLcSt3p9vl-21" style="edgeStyle=orthogonalEdgeStyle;rounded=0;orthogonalLoop=1;jettySize=auto;html=1;exitX=1;exitY=0.5;exitDx=0;exitDy=0;entryX=0;entryY=0.5;entryDx=0;entryDy=0;endArrow=none;endFill=0;" edge="1" parent="1" source="illKjyLx86xLcSt3p9vl-10" target="illKjyLx86xLcSt3p9vl-13">
          <mxGeometry relative="1" as="geometry" />
        </mxCell>
        <mxCell id="illKjyLx86xLcSt3p9vl-10" value="Login" style="ellipse;whiteSpace=wrap;html=1;" vertex="1" parent="1">
          <mxGeometry x="220" y="210" width="120" height="80" as="geometry" />
        </mxCell>
        <mxCell id="illKjyLx86xLcSt3p9vl-13" value="&lt;div&gt;View sticky notes&lt;/div&gt;" style="ellipse;whiteSpace=wrap;html=1;" vertex="1" parent="1">
          <mxGeometry x="380" y="210" width="120" height="80" as="geometry" />
        </mxCell>
      </root>
    </mxGraphModel>
  </diagram>
</mxfile>
